<?xml version="1.0" encoding="UTF-8"?>
<svg version="1.1" xmlns="http://www.w3.org/2000/svg" width="512" height="512">
<path d="M0 0 C1.77734375 0.10546875 1.77734375 0.10546875 4 1 C14.54516965 16.89712671 16.50961758 36.18734141 12.97045898 54.66796875 C8.71281348 73.51031483 -1.63085556 89.56693312 -14.69921875 103.5234375 C-16.61587281 105.58652524 -18.44979242 107.68661325 -20.28125 109.82421875 C-23.89202864 113.96490029 -27.77528809 117.71708554 -31.8125 121.4375 C-32.51391113 122.08928223 -33.21532227 122.74106445 -33.93798828 123.41259766 C-39.9650915 129.00116424 -46.03577334 134.54258341 -52.23046875 139.9453125 C-80.59736879 164.89296809 -80.59736879 164.89296809 -93.21875 199.44140625 C-94.26722317 228.75496876 -78.03835975 253.28471859 -59 274 C-57.88303752 275.10318469 -56.76078884 276.20104796 -55.6328125 277.29296875 C-53 280 -53 280 -53 282 C-71.65865996 279.24925617 -93.97562987 255.94684177 -105.17333984 241.42236328 C-117.11636007 225.25219484 -124.13233141 206.4344845 -121.39624023 186.06469727 C-118.99280281 171.6458309 -111.74885242 159.69687697 -102 149 C-101.13246094 148.01386719 -100.26492187 147.02773437 -99.37109375 146.01171875 C-91.00305455 136.58173803 -81.75472102 128.33120128 -71.94921875 120.4140625 C-67.96988501 117.15680654 -64.0824214 113.79761222 -60.18994141 110.4375 C-56.69852463 107.43150555 -53.16168879 104.50221184 -49.5625 101.625 C-27.56002942 83.76225351 -3.85646664 61.29201795 1 32 C1.08894709 30.18262629 1.13060182 28.36251647 1.1328125 26.54296875 C1.13410156 25.51236328 1.13539063 24.48175781 1.13671875 23.41992188 C1.13285156 22.35322266 1.12898438 21.28652344 1.125 20.1875 C1.12886719 19.13240234 1.13273437 18.07730469 1.13671875 16.99023438 C1.12954245 11.23125126 0.86553838 5.69469298 0 0 Z " fill="#DE8E2E" transform="translate(303,0)"/>
<path d="M0 0 C0.99 0.99 0.99 0.99 2 2 C0.13408203 2.65355469 0.13408203 2.65355469 -1.76953125 3.3203125 C-19.74897048 9.20488169 -19.74897048 9.20488169 -34 21 C-35.40302902 24.48188593 -35.40302902 24.48188593 -35 28 C-26.7491084 40.3763374 -2.5057462 43.15909008 10.97680664 45.99707031 C22.62595797 48.32057688 34.33063535 49.90211763 46.125 51.25 C47.2119516 51.37462616 47.2119516 51.37462616 48.32086182 51.50177002 C65.00316229 53.38758705 81.59283455 54.20708084 98.375 54.1875 C99.25996155 54.18722809 100.1449231 54.18695618 101.05670166 54.18667603 C181.9474409 55.92903394 181.9474409 55.92903394 252.515625 24.54296875 C253.00546875 24.03378906 253.4953125 23.52460938 254 23 C254.825 22.195625 255.65 21.39125 256.5 20.5625 C257.2425 19.7890625 257.2425 19.7890625 258 19 C261.2698669 21.68296771 263.3012701 23.75315199 264 27.9375 C264.23452798 32.11991559 263.46699379 34.51718523 261 38 C254.75603476 44.91296151 247.58133147 48.62738211 239 52 C237.9378125 52.41894531 236.875625 52.83789062 235.78125 53.26953125 C205.0950419 64.35457202 170.41992731 68.06705717 138 70 C137.35219574 70.04130035 136.70439148 70.08260071 136.03695679 70.12515259 C122.79243092 70.96211411 109.58167861 71.20208433 96.3125 71.1875 C94.77388809 71.18659363 94.77388809 71.18659363 93.20419312 71.18566895 C-40.45843707 70.97334781 -40.45843707 70.97334781 -71 41 C-73.79688252 37.79181123 -73.98433971 36.47763876 -74.125 32.1875 C-73.01943113 26.0079519 -68.74313231 22.15948714 -63.98046875 18.41015625 C-47.43190497 7.48404671 -19.74553922 -1.13916572 0 0 Z " fill="#427495" transform="translate(144,415)"/>
<path d="M0 0 C-3.71105912 3.13098773 -7.61250342 5.59897429 -11.8125 8 C-35.07369893 21.68288864 -58.19737677 40.2826967 -66.375 67 C-69.98053898 85.17950708 -62.07118278 99.63825085 -53.27099609 114.79541016 C-51.29119261 118.22945269 -49.3848832 121.70066439 -47.5 125.1875 C-46.8709375 126.33605469 -46.241875 127.48460937 -45.59375 128.66796875 C-41.3430512 137.55484638 -40.73388284 145.5654294 -43.5625 154.9375 C-48.77283617 169.05408555 -61.02604287 184.44337881 -75 191 C-77.28125 190.66796875 -77.28125 190.66796875 -79 190 C-77.12856985 185.09088614 -74.74551957 180.5041492 -72.33984375 175.83984375 C-68.22133136 167.11051866 -69.63210159 158.39007078 -72.6171875 149.4765625 C-76.69028539 139.23628814 -82.55724221 130.04109492 -88.47875977 120.79663086 C-97.49325931 106.49089699 -100.39103832 91.8258414 -97.28125 75.14453125 C-96.34889744 71.99784136 -95.28027386 69.02077689 -94 66 C-93.62617188 65.11054688 -93.25234375 64.22109375 -92.8671875 63.3046875 C-90.04669917 57.19674257 -86.31935456 52.12696498 -82 47 C-81.42765625 46.28199219 -80.8553125 45.56398437 -80.265625 44.82421875 C-62.80070775 23.81407257 -35.64349251 11.83995985 -10.92700195 1.78759766 C-9.30856327 1.12611492 -7.69988869 0.44081234 -6.09375 -0.25 C-3.63716525 -1.12997066 -2.41446105 -0.89424483 0 0 Z " fill="#DE8E2E" transform="translate(353,106)"/>
<path d="M0 0 C0.495 1.485 0.495 1.485 1 3 C-0.16233154 3.2333606 -0.16233154 3.2333606 -1.34814453 3.47143555 C-25.14838581 7.15345923 -25.14838581 7.15345923 -46 18 C-45.04022828 20.47683024 -44.41958519 21.75135693 -42.1015625 23.125 C-23.75630168 29.60660635 -4.25224186 31.26973523 15 33 C15.78375 33.07347656 16.5675 33.14695312 17.375 33.22265625 C59.43136077 37.02390424 104.15752287 33.69821895 145.24975586 24.48706055 C146.20116455 24.27863525 147.15257324 24.07020996 148.1328125 23.85546875 C148.95668457 23.66621826 149.78055664 23.47696777 150.62939453 23.28198242 C156.06693622 22.63518936 159.75289605 24.80669542 164.3125 27.5625 C165.91544922 28.52349609 165.91544922 28.52349609 167.55078125 29.50390625 C168.35902344 29.99761719 169.16726563 30.49132812 170 31 C169.67 31.99 169.34 32.98 169 34 C167.18774414 34.90380859 167.18774414 34.90380859 164.78515625 35.6484375 C163.43611206 36.06935669 163.43611206 36.06935669 162.05981445 36.4987793 C161.07070068 36.78793213 160.08158691 37.07708496 159.0625 37.375 C158.02762451 37.68026611 156.99274902 37.98553223 155.92651367 38.30004883 C132.39931225 45.0258882 108.28666032 47.73131337 84 50 C83.06172363 50.08765625 82.12344727 50.1753125 81.15673828 50.265625 C75.77090616 50.73307882 70.40461117 50.92212634 65 51 C63.6893457 51.02046387 62.37869141 51.04092773 61.02832031 51.06201172 C-50.60236215 52.61464355 -50.60236215 52.61464355 -78.59765625 29.47265625 C-80 28 -80 28 -81.1875 25.4375 C-80.92273113 21.99550469 -80.26356035 20.66301218 -78 18 C-58.41058629 3.72070071 -23.67910031 -0.61630535 0 0 Z " fill="#427495" transform="translate(199,280)"/>
<path d="M0 0 C0 0.66 0 1.32 0 2 C-0.825 2.5775 -1.65 3.155 -2.5 3.75 C-5.35082131 5.80603302 -5.35082131 5.80603302 -5.3125 9.25 C-5.1578125 10.61125 -5.1578125 10.61125 -5 12 C4.08465606 15.77827655 13.51110611 18.07085287 23.1875 19.6875 C23.89865967 19.80665771 24.60981934 19.92581543 25.3425293 20.04858398 C34.79867243 21.54415989 44.24161156 22.15771804 53.80859375 22.203125 C54.80511963 22.21013931 55.80164551 22.21715363 56.82836914 22.22438049 C60.03145925 22.24179739 63.23436425 22.24823407 66.4375 22.25 C68.08179489 22.25101212 68.08179489 22.25101212 69.75930786 22.25204468 C92.89413216 22.2294304 114.99621433 20.45087456 137.65795898 15.53833008 C147.1129591 13.53240322 152.15786535 14.71097294 160.375 19.5625 C161.11105469 19.98724609 161.84710938 20.41199219 162.60546875 20.84960938 C164.40839699 21.89156141 166.20487053 22.94466854 168 24 C167 27 167 27 164.2109375 28.4296875 C162.93914775 28.92927646 161.65965983 29.40950302 160.375 29.875 C159.67060791 30.1325708 158.96621582 30.3901416 158.24047852 30.65551758 C133.97845293 39.11768314 106.77263246 42.0919414 81.18359375 42.203125 C80.09678314 42.21013931 79.00997253 42.21715363 77.89022827 42.22438049 C74.40594282 42.24177472 70.92182727 42.2482319 67.4375 42.25 C66.24748383 42.25067474 65.05746765 42.25134949 63.83139038 42.25204468 C46.68958199 42.23658091 29.93475044 41.89143526 13 39 C11.89785156 38.82307617 10.79570312 38.64615234 9.66015625 38.46386719 C-6.53760406 35.82649283 -23.49841051 32.99117622 -37 23 C-39.37358694 19.43961959 -39.73959381 18.19103161 -39 14 C-31.45270021 4.17152279 -11.88584883 -0.65383844 0 0 Z " fill="#417495" transform="translate(179,341)"/>
<path d="M0 0 C-0.33 1.98 -0.66 3.96 -1 6 C3.42880246 9.29055884 7.47309521 10.96821292 12.875 12.1875 C13.54402344 12.35185547 14.21304688 12.51621094 14.90234375 12.68554688 C22.64171702 14.52718965 30.38921599 15.1679528 38.3125 15.5625 C39.09044922 15.60568359 39.86839844 15.64886719 40.66992188 15.69335938 C51.37225518 16.24647422 61.93793069 15.94761909 72.625 15.1875 C73.85105957 15.10129395 75.07711914 15.01508789 76.34033203 14.92626953 C84.58528976 14.29956151 92.58685184 13.26432847 100.6796875 11.5859375 C106.41782889 10.57332431 110.11004253 10.62076594 115.1796875 13.625 C116.571875 14.43710937 116.571875 14.43710937 117.9921875 15.265625 C118.94351563 15.83796875 119.89484375 16.4103125 120.875 17 C121.84953125 17.57234375 122.8240625 18.1446875 123.828125 18.734375 C126.22584774 20.14480014 128.61582771 21.56682849 131 23 C131 23.99 131 24.98 131 26 C114.75592318 33.26117719 97.69006924 37.26725973 80 39 C78.97132813 39.11085938 77.94265625 39.22171875 76.8828125 39.3359375 C46.00380348 42.12939308 1.40624256 43.18731311 -25.265625 24.52734375 C-28.20603391 21.93792959 -29.85429699 19.97829165 -30.4375 16.0625 C-29.85750286 12.00252 -29.06136512 10.77658697 -26 8 C-18.18457496 3.58087544 -9.04844839 0 0 0 Z " fill="#427495" transform="translate(193,399)"/>
<path d="M0 0 C-0.33235602 7.81036655 -3.79553059 13.02369692 -9.46875 18.29296875 C-34.65636573 38.39462361 -70.55276347 44.25546413 -101.5625 48.75 C-102.59194229 48.90157562 -102.59194229 48.90157562 -103.6421814 49.05621338 C-127.13661857 52.46955282 -150.63057086 53.38009164 -174.34208679 53.31805801 C-176.53311232 53.31241471 -178.7241301 53.30959623 -180.91516113 53.30697632 C-201.7318918 53.27078575 -222.35711147 53.00035295 -243 50 C-244.28003906 49.81775879 -245.56007812 49.63551758 -246.87890625 49.44775391 C-262.78145711 47.14384131 -278.4463799 44.03432751 -294 40 C-294 39.01 -294 38.02 -294 37 C-286.5193411 36.75311357 -279.35153571 37.61091557 -271.94128418 38.5958252 C-227.07961398 44.47911207 -181.06666082 45.19702168 -136 41 C-135.3214093 40.93683594 -134.6428186 40.87367188 -133.94366455 40.80859375 C-97.57948513 37.37707848 -60.23160142 31.83218007 -27 16 C-25.95199219 15.50282471 -25.95199219 15.50282471 -24.8828125 14.99560547 C-17.33473953 11.35152401 -10.70193523 7.48257039 -4.734375 1.46875 C-3 0 -3 0 0 0 Z " fill="#417495" transform="translate(429,459)"/>
<path d="M0 0 C0.88623047 -0.01611328 1.77246094 -0.03222656 2.68554688 -0.04882812 C14.00467297 -0.05708423 24.27052047 3.49672888 32.73046875 11.1640625 C39.88732667 18.82449464 43.02066506 27.53767953 42.83203125 37.9296875 C41.97917127 51.99035203 33.85484446 63.10175216 23.6875 72.3125 C19.25393311 75.98754058 14.52253131 79.19443829 9.6875 82.3125 C8.73359375 82.93769531 7.7796875 83.56289063 6.796875 84.20703125 C-3.41222354 90.52355451 -23.92692703 102.6774379 -36.1328125 100.90234375 C-36.85210937 100.70769531 -37.57140625 100.51304687 -38.3125 100.3125 C-38.3125 99.6525 -38.3125 98.9925 -38.3125 98.3125 C-35.75543305 96.70978861 -33.19637238 95.21653436 -30.5625 93.75 C-19.07945303 87.16966602 -8.86557176 79.51545919 0.6875 70.3125 C1.31269531 69.7246875 1.93789063 69.136875 2.58203125 68.53125 C12.51792113 58.30378773 17.16983288 44.88602354 17.0234375 30.890625 C16.33233425 23.52957178 13.15354457 18.36274591 7.8125 13.375 C-0.26070137 6.91339815 -8.28148451 6.1372007 -18.3125 6.3125 C-17.9825 4.9925 -17.6525 3.6725 -17.3125 2.3125 C-11.45842725 0.30241483 -6.16505291 -0.02212869 0 0 Z " fill="#427495" transform="translate(399.3125,275.6875)"/>
</svg>
