<?xml version="1.0" encoding="UTF-8"?>
<svg version="1.1" xmlns="http://www.w3.org/2000/svg" width="512" height="512">
<path d="M0 0 C0.86604955 -0.00664781 1.7320991 -0.01329562 2.62439257 -0.02014488 C5.5137517 -0.03976133 8.40295546 -0.04520612 11.29237366 -0.05052185 C13.3690735 -0.06142219 15.44576942 -0.07309446 17.52246094 -0.08547974 C23.15462711 -0.1159343 28.7867525 -0.1329895 34.41898417 -0.14569592 C37.93897222 -0.15378855 41.45894863 -0.16396918 44.97892952 -0.17471123 C55.99615248 -0.20740977 67.01334706 -0.23132042 78.03061193 -0.24352509 C90.74219176 -0.25779133 103.45321748 -0.30171107 116.16461366 -0.37102658 C125.99665344 -0.42279107 135.82853546 -0.44769676 145.66070944 -0.45234722 C151.53080585 -0.45574578 157.40034111 -0.47061263 163.27029228 -0.51362801 C168.79041165 -0.5533746 174.30957786 -0.55978585 179.82979774 -0.54072762 C181.85345741 -0.53946144 183.87716579 -0.55013634 185.90068817 -0.57374191 C203.09652591 -0.76286795 203.09652591 -0.76286795 207.69805908 3.11656189 C208.88317687 4.48151513 210.03563656 5.87515111 211.16371155 7.28761292 C212.47382716 8.58634896 213.78534795 9.88387626 215.11605471 11.161506 C216.6366117 12.62513093 218.13323079 14.10991072 219.62528992 15.60255432 C220.15178761 16.12922195 220.67828529 16.65588959 221.22073746 17.19851685 C221.76572262 17.74378525 222.31070778 18.28905365 222.87220764 18.85084534 C224.03249211 20.00813242 225.19297956 21.16521602 226.35365295 22.32211304 C229.48373401 25.44341601 232.61061777 28.56790257 235.73663282 31.69327712 C237.69130608 33.64723718 239.64669064 35.60048249 241.60232925 37.55347633 C248.42821074 44.37013006 255.25152835 51.18933795 262.07240295 58.01100159 C268.42769192 64.366893 274.78855658 70.71716651 281.1520189 77.06487387 C286.62324802 82.52303957 292.09062721 87.98504133 297.55500853 93.45006257 C300.81557429 96.71088336 304.0776761 99.97013041 307.34365463 103.22553062 C310.40969 106.28190343 313.47091227 109.34301542 316.5284729 112.40786552 C317.65145459 113.53189484 318.77614996 114.65421505 319.902668 115.77470016 C321.43887564 117.30321119 322.9688036 118.83774502 324.49729919 120.3739624 C325.35523764 121.23135608 326.21317608 122.08874975 327.09711266 122.97212505 C330.45555625 126.73503976 331.41339623 129.43593631 331.41818714 134.46831703 C331.42401933 135.5220997 331.42985153 136.57588237 331.43586046 137.66159785 C331.43208113 138.81819167 331.42830181 139.97478549 331.42440796 141.16642761 C331.42823351 142.39602247 331.43205905 143.62561732 331.43600053 144.89247262 C331.44454576 148.30747798 331.4440923 151.7222685 331.43981993 155.13726783 C331.43735716 158.8197797 331.44636149 162.50226608 331.45385742 166.18476868 C331.46662074 173.40127833 331.46839594 180.6177508 331.46605716 187.83426984 C331.46427501 193.70175168 331.46602144 199.56922223 331.4702816 205.43670273 C331.47087679 206.27143263 331.47147198 207.10616254 331.4720852 207.96618729 C331.47329695 209.66193784 331.47451109 211.3576884 331.47572758 213.05343895 C331.48661023 228.96577826 331.4844377 244.8780964 331.47834273 260.79043691 C331.47317769 275.33960477 331.48441681 289.8887056 331.50344095 304.43786021 C331.52282773 319.37906543 331.53107358 334.32023896 331.5273177 349.26145685 C331.52540632 357.64879522 331.5278867 366.03607659 331.54203224 374.42340469 C331.55395801 381.56694301 331.55533785 388.71038927 331.54324207 395.85392888 C331.53736063 399.49668468 331.5362333 403.13927224 331.54824448 406.78201675 C331.56113331 410.73705958 331.55062063 414.69184863 331.53793335 418.64689636 C331.54530763 419.79010585 331.55268192 420.93331535 331.56027967 422.11116755 C331.47121615 435.32792331 327.23994881 446.58653944 318.2379303 456.36964417 C307.7063279 466.10790552 296.46543847 468.74855791 282.50090027 468.67529297 C281.25942289 468.68067851 280.01794552 468.68606404 278.73884761 468.69161278 C275.3183596 468.70338697 271.89836283 468.7018483 268.47789502 468.69444597 C264.77907925 468.68969647 261.08031463 468.70223984 257.3815155 468.71246338 C250.14508955 468.7296221 242.90875054 468.73049747 235.67230953 468.72525048 C229.78782118 468.72120198 223.90335844 468.72266039 218.01887131 468.72799873 C216.76053594 468.72912137 216.76053594 468.72912137 215.47677966 468.73026668 C213.77233577 468.73179823 212.06789189 468.73333657 210.36344801 468.73488165 C194.39473815 468.74859616 178.42607733 468.74317644 162.4573686 468.73169643 C147.8646456 468.72176573 133.27204942 468.73470376 118.67934598 468.75863063 C103.67691363 468.78304299 88.67454031 468.79262421 73.6720885 468.7859779 C65.25681487 468.78249035 56.84163873 468.78468697 48.42638016 468.80222893 C41.26252352 468.81697769 34.09883304 468.81755155 26.93497957 468.80015802 C23.28378896 468.79166744 19.63289483 468.78945038 15.98171997 468.80480957 C12.01449298 468.82129094 8.04771946 468.80645958 4.08049011 468.78881836 C2.93941712 468.79842337 1.79834414 468.80802837 0.62269318 468.81792444 C-12.53471432 468.69799013 -23.23836384 464.42550693 -32.83628845 455.40870667 C-43.79812632 443.71450463 -45.13713158 430.76883757 -45.10371399 415.45529175 C-45.10745308 413.83247882 -45.11205563 412.20966769 -45.11744463 410.58685941 C-45.12965821 406.13779135 -45.1294161 401.68879859 -45.12705588 397.2397176 C-45.1266473 392.4372353 -45.13769087 387.63477699 -45.14717102 382.83230591 C-45.16377323 373.42690449 -45.16928022 364.02152813 -45.17039578 354.61611328 C-45.17134667 346.96910025 -45.17545901 339.32209548 -45.18179703 331.67508507 C-45.19940769 309.98521349 -45.20863623 288.29536169 -45.20713608 266.60548291 C-45.20705617 265.43654529 -45.20697625 264.26760766 -45.20689392 263.06324768 C-45.20681216 261.89287951 -45.2067304 260.72251134 -45.20664616 259.51667746 C-45.20583342 240.55314564 -45.22496857 221.58969328 -45.25317065 202.62618444 C-45.28191268 183.14557896 -45.29571021 163.66501222 -45.2939831 144.184385 C-45.29331963 133.25114759 -45.29879299 122.31799346 -45.3203392 111.38477516 C-45.33856837 102.07518897 -45.34288408 92.76572383 -45.32932036 83.4561275 C-45.32279937 78.70917703 -45.32264207 73.96245866 -45.34002686 69.2155304 C-45.35580118 64.86344972 -45.35284968 60.51178434 -45.33545859 56.15971353 C-45.33239826 54.59176216 -45.33598438 53.02377946 -45.34717874 51.45586506 C-45.45368293 35.47003427 -42.19044035 23.27810168 -31.1136322 11.44776917 C-22.44814924 3.39685947 -11.58705732 -0.01523865 0 0 Z M-17.0901947 30.63917542 C-17.73794861 31.76452698 -17.73794861 31.76452698 -18.39878845 32.91261292 C-18.85382751 33.66800354 -19.30886658 34.42339417 -19.7776947 35.20167542 C-21.79186397 39.17055507 -21.96455737 42.29022366 -21.97330284 46.68836308 C-21.97595467 47.34391763 -21.97860649 47.99947219 -21.98133868 48.67489204 C-21.98904083 50.88696422 -21.9895912 53.09898097 -21.9901886 55.31106567 C-21.99420263 56.90695154 -21.99864075 58.5028364 -22.00346816 60.09872001 C-22.01544631 64.49644574 -22.02108499 68.89416048 -22.02564931 73.29189932 C-22.03160075 78.03033077 -22.0432118 82.76874905 -22.05393982 87.50717163 C-22.07847515 98.9573067 -22.09309306 110.40744613 -22.10599989 121.85759941 C-22.10971113 125.09110513 -22.11368442 128.32461043 -22.11775255 131.55811572 C-22.14298943 151.63295264 -22.16504501 171.70779022 -22.1774807 191.7826395 C-22.18041045 196.43379278 -22.18337211 201.08494602 -22.18638611 205.73609924 C-22.18713216 206.89213817 -22.18787821 208.04817709 -22.18864687 209.23924749 C-22.20130013 227.96587471 -22.23452206 246.69240696 -22.27618794 265.41898979 C-22.31860507 284.64064462 -22.34217552 303.86225085 -22.34740126 323.08395237 C-22.35081573 333.87802974 -22.36257511 344.67195874 -22.395504 355.46599007 C-22.42350265 364.65904577 -22.43450464 373.8519227 -22.42330854 383.04501773 C-22.41812135 387.73491242 -22.42101259 392.42443274 -22.44577408 397.11427307 C-22.46827017 401.41095248 -22.46752407 405.70698868 -22.44857021 410.00367939 C-22.44577068 411.55491022 -22.45136618 413.1061847 -22.46638314 414.65734536 C-22.5464942 423.47412547 -22.07285706 430.85441275 -16.83628845 438.28761292 C-14.63960535 440.57321416 -14.63960535 440.57321416 -12.21128845 441.85011292 C-11.45589783 442.30515198 -10.7005072 442.76019104 -9.92222595 443.22901917 C-6.44057683 444.9959235 -3.71966999 445.41458184 0.12766361 445.4246273 C1.67400048 445.43223912 1.67400048 445.43223912 3.25157648 445.44000471 C4.38773746 445.44050246 5.52389843 445.44100022 6.69448853 445.44151306 C7.89872764 445.44589532 9.10296676 445.45027757 10.34369797 445.45479262 C13.69249134 445.46586289 17.04123797 445.47240683 20.3900429 445.47697377 C23.99963172 445.48292956 27.60920332 445.49453957 31.21878052 445.50526428 C39.93993128 445.52979051 48.66108774 445.54441663 57.38226238 445.55732435 C59.84581574 445.5610364 62.30936853 445.56500963 64.77292132 445.56907701 C80.07287742 445.59431583 95.37283442 445.61636791 110.67280674 445.62880516 C114.21705694 445.63173484 117.76130712 445.6346965 121.30555725 445.63771057 C122.6269108 445.63882965 122.6269108 445.63882965 123.97495835 445.63997133 C138.23969689 445.65262038 152.50431065 445.68583705 166.76899088 445.7275124 C181.41635571 445.76995469 196.06365672 445.79350292 210.71108288 445.79872572 C218.93417828 445.80213746 227.15707877 445.81386432 235.3801136 445.84682846 C242.3846353 445.87486184 249.38892213 445.885814 256.39349557 445.874633 C259.96548803 445.86945447 263.53698891 445.87227953 267.10890961 445.89709854 C270.98748756 445.92382246 274.86539963 445.91150284 278.74404907 445.89561462 C279.86459499 445.90949671 280.98514092 445.9233788 282.13964278 445.93768156 C289.5017546 445.86349564 294.98097074 444.37190265 301.16371155 440.28761292 C303.4493128 438.09092981 303.4493128 438.09092981 304.72621155 435.66261292 C305.18125061 434.90722229 305.63628967 434.15183167 306.1051178 433.37355042 C307.84488857 429.94536742 308.28842863 427.27067464 308.28675938 423.48313618 C308.28875042 422.48787869 308.29074147 421.4926212 308.29279286 420.46720439 C308.28842359 418.8227682 308.28842359 418.8227682 308.28396606 417.14511108 C308.28482049 415.98281894 308.28567491 414.82052679 308.28655523 413.62301368 C308.28792032 410.39172992 308.28478451 407.16048601 308.27977717 403.92920697 C308.27546697 400.44660957 308.2769195 396.96401411 308.27767944 393.48141479 C308.27820432 387.44586558 308.27506133 381.41032716 308.2694416 375.37478065 C308.26132166 366.64834651 308.25871087 357.92191759 308.25745361 349.19548007 C308.25526388 335.0381184 308.2486059 320.88076248 308.239151 306.72340393 C308.22997487 292.96917245 308.22289502 279.21494254 308.21864319 265.46070862 C308.21838046 264.61319004 308.21811774 263.76567147 308.21784706 262.89247052 C308.21654204 258.64080619 308.21527833 254.38914186 308.21403515 250.13747752 C308.20366497 214.85418521 308.18604877 179.57089959 308.16371155 144.28761292 C307.06061142 144.28396729 305.95751129 144.28032166 304.82098389 144.27656555 C294.39048974 144.23951443 283.96028806 144.1816316 273.5300169 144.10371017 C268.16856405 144.06431621 262.80727346 144.03208814 257.44569397 144.01661682 C252.26482799 144.00139698 247.08440835 143.96685717 241.90374184 143.91930389 C239.93399259 143.9045449 237.96417959 143.89657507 235.99437523 143.89572906 C220.97887204 143.88280229 209.18177232 142.7512627 197.60121155 132.16261292 C190.12931348 124.49190603 188.02967136 115.84059361 187.95838928 105.47999573 C187.94848969 104.5918367 187.93859009 103.70367767 187.9283905 102.78860474 C187.89682966 99.85600948 187.87203945 96.92339804 187.8473053 93.99073792 C187.8267311 91.9562081 187.8057345 89.92168252 187.78433228 87.88716125 C187.72915976 82.53441292 187.67972919 77.18162631 187.63148499 71.82881165 C187.58123479 66.36582537 187.52556708 60.90289462 187.47035217 55.43995667 C187.36282954 44.72255619 187.26137145 34.00510749 187.16371155 23.28761292 C162.30278682 23.17072698 137.44190337 23.08259882 112.58075905 23.02855206 C101.03686453 23.00278836 89.4931409 22.9676727 77.94935608 22.91041565 C67.8858775 22.86052477 57.82252271 22.82830857 47.75892389 22.81717044 C42.4320031 22.81066137 37.10543642 22.7954011 31.7786293 22.75896263 C26.76024339 22.72491351 21.74235597 22.71457801 16.72386551 22.72207451 C14.88649788 22.72070395 13.04911281 22.7108248 11.2118454 22.69158554 C-4.315447 22.47355444 -4.315447 22.47355444 -17.0901947 30.63917542 Z M210.16371155 40.28761292 C210.07090935 49.3107857 209.99989504 58.33379344 209.95646286 67.35733986 C209.93561437 71.5476483 209.90734738 75.73762951 209.86195374 79.92774963 C209.81839735 83.97373533 209.79455385 88.01940687 209.78420258 92.06560898 C209.77682868 93.60696226 209.76242898 95.14829893 209.74079132 96.68951797 C209.71162544 98.85361228 209.70776079 101.01641917 209.70960999 103.18067932 C209.70072754 104.41089813 209.69184509 105.64111694 209.68269348 106.90861511 C210.42112943 112.09589107 212.90434953 115.15111548 216.72621155 118.60011292 C220.80780081 121.42582856 223.98645057 121.40997587 228.83827209 121.40113831 C229.51170654 121.40128433 230.18514099 121.40143036 230.87898254 121.40158081 C233.10283133 121.40088467 235.32659616 121.39310624 237.5504303 121.38526917 C239.09313918 121.38340393 240.63584866 121.38198052 242.17855835 121.38098145 C246.23755023 121.37716461 250.29650628 121.36734142 254.35548401 121.35627747 C258.49793513 121.34604544 262.64039205 121.34147998 266.78285217 121.33644104 C274.90982173 121.32571842 283.03676218 121.30865199 291.16371155 121.28761292 C286.88961756 116.18376419 282.41841952 111.39866208 277.70545959 106.69996643 C276.98442551 105.97718002 276.26339142 105.25439362 275.52050781 104.50970459 C273.15797596 102.14280292 270.79184308 99.77954022 268.4254303 97.41651917 C266.77715683 95.7675717 265.12903179 94.11847584 263.48104858 92.46923828 C260.03892023 89.02563995 256.59500003 85.58384647 253.14979553 82.14332581 C248.72312635 77.72238046 244.3009975 73.29692494 239.88017559 68.8701334 C236.48408003 65.47043626 233.08562119 62.07310964 229.68642616 58.67651176 C228.05371911 57.04447371 226.42175983 55.41168722 224.79054832 53.77815437 C222.52109839 51.50618164 220.24849692 49.23741052 217.97499084 46.96949768 C217.29605774 46.28854034 216.61712463 45.60758301 215.9176178 44.9059906 C213.42139996 41.79269229 213.42139996 41.79269229 210.16371155 40.28761292 Z " fill="#FFFFFF" transform="translate(112.83628845214844,21.712387084960938)"/>
<path d="M0 0 C0.90150052 -0.00453111 1.80300103 -0.00906223 2.73181975 -0.01373065 C5.76500043 -0.02643242 8.79800288 -0.02475056 11.83120728 -0.02310181 C14.00085177 -0.02908345 16.17049413 -0.03588814 18.34013367 -0.04345703 C24.24300738 -0.06116122 30.14582315 -0.06581427 36.04872084 -0.0670886 C40.9718416 -0.06898501 45.89494878 -0.07633955 50.81806433 -0.08343279 C62.43068796 -0.09973111 74.04328056 -0.10460043 85.65591431 -0.10317993 C97.64553505 -0.10197808 109.634909 -0.12308529 121.62448919 -0.15466726 C131.90905239 -0.18079528 142.19355672 -0.19154869 152.47815287 -0.19026911 C158.62470416 -0.18975846 164.77109566 -0.19549854 170.91761398 -0.21662521 C176.69767348 -0.23594907 182.4774198 -0.23617211 188.25749016 -0.22159195 C190.38074766 -0.21949548 192.50402447 -0.22425431 194.62724876 -0.23631287 C197.52245972 -0.25169271 200.41658098 -0.24250518 203.31176758 -0.22705078 C204.15505659 -0.23733791 204.99834559 -0.24762503 205.86718881 -0.25822389 C209.87360039 -0.21085578 211.81665965 -0.02893544 215.28106117 2.17333031 C218.79881482 5.85326242 218.62090587 8.86765821 218.56411743 13.78695679 C218.16189824 17.33430662 216.95706351 18.95460731 214.28286743 21.26742554 C209.84185801 23.60970612 205.50717134 23.55090382 200.60443115 23.52812195 C199.2946111 23.53386027 199.2946111 23.53386027 197.95833004 23.53971452 C195.0327565 23.55003208 192.10737968 23.5460547 189.18179321 23.54208374 C187.08406391 23.54643092 184.98633619 23.55161408 182.88861084 23.55757141 C177.19025367 23.57097246 171.49196279 23.57153881 165.79359293 23.56900811 C161.03707814 23.56793909 156.28057681 23.57282005 151.5240649 23.57761353 C140.30254225 23.58871269 129.08105307 23.58914391 117.85952759 23.58309937 C106.2823483 23.57705913 94.70529054 23.58937098 83.12813199 23.61066943 C73.18914265 23.62828197 63.250192 23.63428731 53.31118762 23.63103169 C47.37478449 23.62921804 41.43846802 23.63186321 35.50207901 23.64574623 C29.9190096 23.65831411 24.33612967 23.65639019 18.7530632 23.64333534 C16.70482571 23.64096771 14.65657492 23.64371093 12.60835266 23.65195847 C9.81043867 23.66241171 7.01316212 23.65433652 4.215271 23.64164734 C3.40640855 23.64902162 2.5975461 23.65639591 1.76417267 23.66399366 C-3.4518968 23.61429142 -7.08262036 22.70864005 -11.71713257 20.26742554 C-14.77555916 16.81436326 -15.18678733 13.65633144 -15.01010132 9.19711304 C-14.57759109 6.34831233 -13.49433924 4.5053895 -11.71713257 2.26742554 C-7.81189282 -0.33606763 -4.5305182 -0.01655197 0 0 Z " fill="#FFFFFF" transform="translate(143.71713256835938,395.7325744628906)"/>
<path d="M0 0 C2.54725672 0.0160941 5.09292752 0.00005743 7.64013672 -0.01904297 C20.33898841 -0.03721256 32.70589066 0.87473188 44.17529297 6.89111328 C44.83779053 7.23223145 45.50028809 7.57334961 46.18286133 7.92480469 C61.40794931 16.17806731 71.65137889 30.03537416 77.02294922 46.34423828 C78.78256903 52.85892374 79.34591238 59.17632928 79.42529297 65.89111328 C79.43923096 66.65689697 79.45316895 67.42268066 79.4675293 68.21166992 C79.41941973 73.86922994 78.14533892 77.05433126 74.42529297 81.20361328 C70.67853726 83.07699114 67.14371822 83.17013885 63.05029297 82.39111328 C59.98147481 80.67206577 57.64672213 78.58397161 56.05029297 75.39111328 C55.95615558 73.65689339 55.86709455 71.9221552 55.8112793 70.1862793 C55.3575021 57.17146682 52.55432723 45.44827046 43.46044922 35.68408203 C32.46457199 25.46438437 19.2619539 24.03217376 4.93139648 24.07543945 C2.75241661 24.07859212 0.57480834 24.05510018 -1.60400391 24.02978516 C-16.13868269 23.96192546 -27.8459882 26.40599885 -39.01611328 36.20361328 C-48.34311271 45.87307273 -49.98599067 57.97752483 -50.47314453 70.79736328 C-51.0697639 75.29646018 -52.58898182 77.87338131 -55.57470703 81.20361328 C-59.32455727 83.0785384 -62.8528302 83.1637077 -66.94970703 82.39111328 C-70.52022912 80.45769779 -72.6442267 78.30755429 -73.94970703 74.39111328 C-75.13718532 54.84638874 -71.8366967 37.37696173 -58.63720703 22.07861328 C-41.92491195 4.68993527 -23.4280136 -0.17567632 0 0 Z " fill="#FFFFFF" transform="translate(208.94970703125,196.60888671875)"/>
<path d="M0 0 C10.36883804 7.44334445 17.81433333 17.05170787 20.06640625 29.9140625 C21.42261597 42.78729129 19.44306617 55.34317321 11.37109375 65.75390625 C3.3338153 75.13306076 -6.08758825 82.04640378 -18.69140625 83.47753906 C-33.28865067 84.54612187 -45.3822172 81.23938422 -56.62109375 71.58984375 C-65.15163528 63.53627874 -70.00555499 53.28577142 -70.890625 41.55859375 C-71.12305865 27.32203245 -67.29691319 16.13642678 -57.6875 5.5625 C-42.02040886 -9.46402864 -18.16840584 -11.25150007 0 0 Z M-42 23.5 C-46.06747359 28.73437176 -48.02519518 33.56772873 -47.6875 40.25 C-46.62957744 47.51068955 -43.29868752 52.24010599 -37.5625 56.6875 C-32.15546799 60.54816294 -27.17891875 60.90854973 -20.6875 60.25 C-14.03383245 58.48560892 -9.30478219 55.10930374 -5.6875 49.25 C-2.72267704 43.30949393 -1.82576597 37.68040648 -3.6875 31.25 C-6.52513686 24.97554399 -10.74733503 20.10573276 -17.04296875 17.140625 C-26.44869062 13.97296682 -35.33659125 16.36296661 -42 23.5 Z " fill="#FFFFFF" transform="translate(236.6875,109.75)"/>
<path d="M0 0 C1.77483513 -0.01279495 1.77483513 -0.01279495 3.58552551 -0.02584839 C5.52749565 -0.02448883 5.52749565 -0.02448883 7.50869751 -0.02310181 C8.88870101 -0.02908751 10.26870115 -0.03589315 11.6486969 -0.04345703 C15.39462912 -0.06112009 19.14046996 -0.06581253 22.8864398 -0.0670886 C25.2276336 -0.06851059 27.56880419 -0.07278109 29.90999222 -0.07808304 C38.08011601 -0.09658433 46.25017456 -0.10475353 54.4203186 -0.10317993 C62.03210002 -0.1019785 69.64359789 -0.12308072 77.25530756 -0.15466726 C83.79387029 -0.18083212 90.33234043 -0.19154714 96.87095511 -0.19026911 C100.77464048 -0.18975954 104.67807385 -0.19544005 108.581707 -0.21662521 C112.25408803 -0.23601138 115.92597677 -0.23612996 119.59837532 -0.22159195 C121.58438123 -0.21850905 123.57038719 -0.23517767 125.55632019 -0.25247192 C136.51613449 -0.17513616 136.51613449 -0.17513616 141.20645142 4.26742554 C144.02370375 8.49330403 144.00603525 12.30367242 143.20645142 17.26742554 C141.01622224 20.09166842 139.37627935 21.68251157 136.20645142 23.26742554 C134.33232631 23.37169746 132.45448103 23.41131588 130.57748413 23.42132568 C128.78153053 23.43422638 128.78153053 23.43422638 126.94929504 23.4473877 C125.61541791 23.45182306 124.28154032 23.4561214 122.94766235 23.46029663 C121.5482513 23.46819698 120.14884229 23.47646589 118.74943542 23.4850769 C114.14658558 23.51130691 109.54372659 23.52660645 104.94082642 23.54086304 C103.35665125 23.54622249 101.77247614 23.5516 100.18830109 23.55699539 C93.59834456 23.5786264 87.00839049 23.5973629 80.41840744 23.60861778 C70.97295303 23.62485517 61.52791012 23.65802489 52.08261085 23.71501863 C45.44219193 23.7537215 38.80188305 23.77325092 32.1613543 23.77853835 C28.19495531 23.78219166 24.22899511 23.79420976 20.2627182 23.82664108 C16.52958161 23.85672798 12.79714914 23.86303189 9.06391716 23.85125732 C7.04445174 23.85093157 5.02502974 23.87539371 3.00572205 23.90063477 C-6.89062044 23.83251977 -6.89062044 23.83251977 -10.59207153 20.85595703 C-13.91312595 16.95100878 -14.13491606 14.52000672 -14.07870483 9.52523804 C-13.65288231 6.15365698 -12.25877684 4.52721811 -9.79354858 2.26742554 C-6.48313923 0.19728053 -3.87161069 0.01261928 0 0 Z " fill="#FFFFFF" transform="translate(142.79354858398438,336.7325744628906)"/>
</svg>
